<svg width="15" height="11" viewBox="0 0 15 11" fill="none" xmlns="http://www.w3.org/2000/svg">
<path d="M14.3507 4.85065H2.21683L5.11214 1.95515C5.36578 1.70166 5.36578 1.29044 5.11214 1.03698C4.85849 0.783329 4.44727 0.783329 4.194 1.03698L0.190236 5.04081C-0.0634119 5.29431 -0.0634119 5.70557 0.190236 5.95899L4.194 9.96301C4.32078 10.0899 4.48694 10.1532 4.65307 10.1532C4.81919 10.1532 4.98535 10.0899 5.11214 9.96301C5.36578 9.70951 5.36578 9.29829 5.11214 9.04487L2.21683 6.14922H14.3507C14.7092 6.14922 15 5.85849 15 5.49992C15 5.14135 14.7093 4.85065 14.3507 4.85065Z" fill="black"/>
</svg>
